<svg xmlns="http://www.w3.org/2000/svg" viewBox="0 0 1440 400" preserveAspectRatio="xMidYMid slice">
  <!-- Base background -->
  <rect width="1440" height="400" fill="#080e1a"/>

  <!-- Layer 1 — deepest mountains, darkest -->
  <path d="M0,400 L0,260 C80,260 120,200 200,185 C280,170 320,210 400,195 C480,180 500,140 580,120 C660,100 700,155 780,145 C860,135 880,100 960,115 C1040,130 1060,170 1140,160 C1220,150 1260,195 1340,200 C1380,202 1420,195 1440,192 L1440,400 Z" fill="#0d1520" opacity="1"/>

  <!-- Layer 2 — mid mountains -->
  <path d="M0,400 L0,300 C60,295 100,265 180,250 C260,235 300,255 380,245 C460,235 490,205 560,190 C630,175 670,200 750,195 C830,190 860,170 940,175 C1020,180 1050,205 1130,200 C1210,195 1250,220 1330,225 C1380,228 1420,218 1440,215 L1440,400 Z" fill="#111d2e" opacity="0.9"/>

  <!-- Layer 3 — foreground waves -->
  <path d="M0,400 L0,330 C50,325 90,310 160,305 C230,300 270,315 350,310 C430,305 460,290 530,285 C600,280 640,295 710,292 C780,289 820,278 900,280 C980,282 1010,295 1090,292 C1170,289 1210,305 1290,308 C1350,310 1400,302 1440,300 L1440,400 Z" fill="#162030" opacity="0.85"/>

  <!-- Layer 4 — closest foreground, lightest -->
  <path d="M0,400 L0,360 C40,357 80,348 150,345 C220,342 260,352 330,350 C400,348 440,338 510,335 C580,332 620,342 690,340 C760,338 800,330 870,332 C940,334 980,344 1050,342 C1120,340 1160,350 1230,352 C1300,354 1370,346 1440,344 L1440,400 Z" fill="#1a2840" opacity="0.8"/>
</svg>
